<?xml version="1.0" encoding="utf-8"?>
<!-- Generator: Adobe Illustrator 16.0.0, SVG Export Plug-In . SVG Version: 6.00 Build 0)  -->
<!DOCTYPE svg PUBLIC "-//W3C//DTD SVG 1.1//EN" "http://www.w3.org/Graphics/SVG/1.1/DTD/svg11.dtd">
<svg version="1.1" id="Layer_1" xmlns="http://www.w3.org/2000/svg" xmlns:xlink="http://www.w3.org/1999/xlink" x="0px" y="0px"
	 width="349.32px" height="349.32px" viewBox="0.002 -55.989 349.32 349.32" enable-background="new 0.002 -55.989 349.32 349.32"
	 xml:space="preserve">
<g>
	<g>
		<defs>
			<rect id="SVGID_1_" width="349.324" height="237.921"/>
		</defs>
		<clipPath id="SVGID_2_">
			<use xlink:href="#SVGID_1_"  overflow="visible"/>
		</clipPath>
		<path clip-path="url(#SVGID_2_)" fill="#232323" d="M129.78,100.479h141.386c5.849,0,7.799,22.896-0.779,22.896H127.848
			C118.229,123.373,115.667,100.479,129.78,100.479"/>
	</g>
	<g>
		<defs>
			<rect id="SVGID_3_" width="349.324" height="237.921"/>
		</defs>
		<clipPath id="SVGID_4_">
			<use xlink:href="#SVGID_3_"  overflow="visible"/>
		</clipPath>
		<path clip-path="url(#SVGID_4_)" d="M129.78,100.479h141.386c5.849,0,7.799,22.896-0.779,22.896H127.848
			C118.229,123.373,115.667,100.479,129.78,100.479z"/>
	</g>
	<g>
		<defs>
			<rect id="SVGID_5_" width="349.324" height="237.921"/>
		</defs>
		<clipPath id="SVGID_6_">
			<use xlink:href="#SVGID_5_"  overflow="visible"/>
		</clipPath>
		<path clip-path="url(#SVGID_6_)" fill="#232323" d="M116.125,59.885h169.662c7.021,0,9.361,22.895-0.937,22.895H113.809
			C102.264,82.78,99.187,59.885,116.125,59.885"/>
	</g>
	<g>
		<defs>
			<rect id="SVGID_7_" width="349.324" height="237.921"/>
		</defs>
		<clipPath id="SVGID_8_">
			<use xlink:href="#SVGID_7_"  overflow="visible"/>
		</clipPath>
		<path clip-path="url(#SVGID_8_)" d="M116.125,59.885h169.662c7.021,0,9.361,22.895-0.937,22.895H113.809
			C102.264,82.78,99.187,59.885,116.125,59.885z"/>
	</g>
	<g>
		<defs>
			<rect id="SVGID_9_" width="349.324" height="237.921"/>
		</defs>
		<clipPath id="SVGID_10_">
			<use xlink:href="#SVGID_9_"  overflow="visible"/>
		</clipPath>
		<path clip-path="url(#SVGID_10_)" fill="#232323" d="M99.74,19.292h203.593c8.426,0,11.234,22.895-1.125,22.895H96.962
			C83.108,42.187,79.414,19.292,99.74,19.292"/>
	</g>
	<g>
		<defs>
			<rect id="SVGID_11_" width="349.324" height="237.921"/>
		</defs>
		<clipPath id="SVGID_12_">
			<use xlink:href="#SVGID_11_"  overflow="visible"/>
		</clipPath>
		<path clip-path="url(#SVGID_12_)" d="M99.74,19.292h203.593c8.426,0,11.234,22.895-1.125,22.895H96.962
			C83.108,42.187,79.414,19.292,99.74,19.292z"/>
	</g>
	<g>
		<defs>
			<rect id="SVGID_13_" width="349.324" height="237.921"/>
		</defs>
		<clipPath id="SVGID_14_">
			<use xlink:href="#SVGID_13_"  overflow="visible"/>
		</clipPath>
		<path clip-path="url(#SVGID_14_)" d="M4.607,25.257c-4.385,0-4.708-24.061,0-24.061h43.602c5.915,0,54.083,131.277,54.083,139.416
			h193.719c0-3.713,30.484-105.613,33.434-105.613h18.682c0,6.517-37.857,127.224-37.857,128.497
			c-44.704-0.047-220.776-0.266-227.674-0.266c0-3.719-40.779-137.973-51.595-137.973H4.607z"/>
	</g>
	<g>
		<defs>
			<rect id="SVGID_15_" width="349.324" height="237.921"/>
		</defs>
		<clipPath id="SVGID_16_">
			<use xlink:href="#SVGID_15_"  overflow="visible"/>
		</clipPath>
		<path clip-path="url(#SVGID_16_)" fill="none" stroke="#232323" stroke-width="2.393" stroke-miterlimit="10" d="M4.607,25.257
			c-4.385,0-4.708-24.061,0-24.061h43.602c5.915,0,54.083,131.277,54.083,139.416h193.719c0-3.713,30.484-105.613,33.434-105.613
			h18.682c0,6.517-37.857,127.224-37.857,128.497c-44.704-0.047-220.776-0.266-227.674-0.266c0-3.719-40.779-137.973-51.595-137.973
			H4.607z"/>
	</g>
	<g>
		<defs>
			<rect id="SVGID_17_" width="349.324" height="237.921"/>
		</defs>
		<clipPath id="SVGID_18_">
			<use xlink:href="#SVGID_17_"  overflow="visible"/>
		</clipPath>
		<path clip-path="url(#SVGID_18_)" d="M275.619,205.25c0,13.955-11.312,25.262-25.267,25.262c-13.95,0-25.265-11.307-25.265-25.262
			s11.313-25.262,25.265-25.262C264.308,179.988,275.619,191.294,275.619,205.25"/>
	</g>
	<g>
		<defs>
			<rect id="SVGID_19_" width="349.324" height="237.921"/>
		</defs>
		<clipPath id="SVGID_20_">
			<use xlink:href="#SVGID_19_"  overflow="visible"/>
		</clipPath>
		<path clip-path="url(#SVGID_20_)" fill="none" stroke="#000000" stroke-width="14.82" stroke-miterlimit="10" d="M275.619,205.25
			c0,13.955-11.312,25.262-25.267,25.262c-13.95,0-25.265-11.307-25.265-25.262s11.313-25.262,25.265-25.262
			C264.308,179.988,275.619,191.294,275.619,205.25z"/>
	</g>
	<g>
		<defs>
			<rect id="SVGID_21_" width="349.324" height="237.921"/>
		</defs>
		<clipPath id="SVGID_22_">
			<use xlink:href="#SVGID_21_"  overflow="visible"/>
		</clipPath>
		<path clip-path="url(#SVGID_22_)" d="M161.997,205.25c0,13.955-11.311,25.262-25.266,25.262
			c-13.952,0-25.264-11.307-25.264-25.262s11.312-25.262,25.264-25.262C150.686,179.988,161.997,191.294,161.997,205.25"/>
	</g>
	<g>
		<defs>
			<rect id="SVGID_23_" width="349.324" height="237.921"/>
		</defs>
		<clipPath id="SVGID_24_">
			<use xlink:href="#SVGID_23_"  overflow="visible"/>
		</clipPath>
		<path clip-path="url(#SVGID_24_)" fill="none" stroke="#000000" stroke-width="14.82" stroke-miterlimit="10" d="M161.997,205.25
			c0,13.955-11.311,25.262-25.266,25.262c-13.952,0-25.264-11.307-25.264-25.262s11.312-25.262,25.264-25.262
			C150.686,179.988,161.997,191.294,161.997,205.25z"/>
	</g>
</g>
</svg>
